<svg height="456pt" viewBox="0 0 456.09942 456" width="456pt" xmlns="http://www.w3.org/2000/svg"><path d="m0 77.441406v90.609375c0 22.703125 55.847656 48 136 48s136-25.296875 136-48v-90.609375c-24.457031 20.878906-74.863281 34.609375-136 34.609375s-111.542969-13.730469-136-34.609375zm0 0"/><path d="m0 197.441406v82.609375c0 22.703125 55.847656 48 136 48s136-25.296875 136-48v-82.609375c-24.457031 20.878906-74.863281 34.609375-136 34.609375s-111.542969-13.730469-136-34.609375zm0 0"/><path d="m0 309.441406v90.609375c0 22.703125 55.847656 48 136 48s136-25.296875 136-48v-90.609375c-24.457031 20.878906-74.863281 34.609375-136 34.609375s-111.542969-13.730469-136-34.609375zm0 0"/><path d="m272 48.050781c0-26.511719-60.890625-47.9999998-136-47.9999998s-136 21.4882808-136 47.9999998c0 26.507813 60.890625 48 136 48s136-21.492187 136-48zm0 0"/><path d="m352 112.050781v-72c0-4.417969 3.582031-8 8-8h49.472656c3.894532 11.019531 15.164063 17.628907 26.683594 15.652344 11.523438-1.976563 19.941406-11.964844 19.941406-23.652344 0-11.691406-8.417968-21.679687-19.941406-23.65625-11.519531-1.976562-22.789062 4.636719-26.683594 15.65625h-49.472656c-13.253906 0-24 10.742188-24 24v72c0 4.417969-3.582031 8-8 8h-40v16h40c13.253906 0 24-10.746093 24-24zm72-96h16v16h-16zm0 0"/><path d="m432 200.050781c-10.140625.015625-19.171875 6.429688-22.527344 16h-121.472656v16h121.472656c4.085938 11.476563 16.136719 18.058594 28.003906 15.292969 11.863282-2.761719 19.769532-13.988281 18.367188-26.089844-1.402344-12.101562-11.660156-21.226562-23.84375-21.203125zm8 32h-16v-16h16zm0 0"/><path d="m432 408.050781c-10.140625.015625-19.171875 6.429688-22.527344 16h-49.472656c-4.417969 0-8-3.582031-8-8v-48c0-13.257812-10.746094-24-24-24h-40v16h40c4.417969 0 8 3.582031 8 8v48c0 13.253907 10.746094 24 24 24h49.472656c4.085938 11.476563 16.136719 18.058594 28.003906 15.292969 11.863282-2.761719 19.769532-13.988281 18.367188-26.089844-1.402344-12.101562-11.660156-21.226562-23.84375-21.203125zm8 32h-16v-16h16zm0 0"/></svg>