<svg id="Capa_1" enable-background="new 0 0 512 512" height="512" viewBox="0 0 512 512" width="512" xmlns="http://www.w3.org/2000/svg" xmlns:xlink="http://www.w3.org/1999/xlink"><linearGradient id="SVGID_1_" gradientUnits="userSpaceOnUse" x1="74.981" x2="437.019" y1="437.019" y2="74.981"><stop offset="0" stop-color="#ff726d"/><stop offset="1" stop-color="#ffde00"/></linearGradient><radialGradient id="SVGID_2_" cx="257.014" cy="280.338" gradientUnits="userSpaceOnUse" r="256"><stop offset="0" stop-color="#ff726d"/><stop offset=".2243" stop-color="#ff7966" stop-opacity=".765"/><stop offset=".5582" stop-color="#ff8e51" stop-opacity=".415"/><stop offset=".9537" stop-color="#ffae31" stop-opacity="0"/></radialGradient><linearGradient id="SVGID_3_" gradientUnits="userSpaceOnUse" x1="154.189" x2="397.934" y1="277.22" y2="33.475"><stop offset="0" stop-color="#fcb000"/><stop offset=".344" stop-color="#fdce62"/><stop offset=".6655" stop-color="#fee8b6"/><stop offset=".8906" stop-color="#fff9eb"/><stop offset="1" stop-color="#fff"/></linearGradient><radialGradient id="SVGID_4_" cx="262.958" cy="300.592" gradientUnits="userSpaceOnUse" r="216.1"><stop offset="0" stop-color="#fca200"/><stop offset=".085" stop-color="#fca509" stop-opacity=".915"/><stop offset=".2218" stop-color="#fcae20" stop-opacity=".778"/><stop offset=".3932" stop-color="#fdbc47" stop-opacity=".607"/><stop offset=".5926" stop-color="#fdcf7c" stop-opacity=".407"/><stop offset=".8126" stop-color="#fee8c0" stop-opacity=".187"/><stop offset="1" stop-color="#fff" stop-opacity="0"/></radialGradient><linearGradient id="SVGID_5_" gradientUnits="userSpaceOnUse" x1="92.379" x2="368.489" y1="365.88" y2="89.771"><stop offset="0" stop-color="#fca200"/><stop offset=".0405" stop-color="#fcaf24"/><stop offset=".0994" stop-color="#fdc051"/><stop offset=".164" stop-color="#fdcf7b"/><stop offset=".2328" stop-color="#fedc9f"/><stop offset=".307" stop-color="#fee7bd"/><stop offset=".3883" stop-color="#fff0d5"/><stop offset=".4797" stop-color="#fff7e8"/><stop offset=".5868" stop-color="#fffbf5"/><stop offset=".7244" stop-color="#fffefd"/><stop offset="1" stop-color="#fff"/></linearGradient><linearGradient id="SVGID_6_" gradientUnits="userSpaceOnUse" x1="256" x2="256" y1="238.158" y2="172.078"><stop offset="0" stop-color="#fca200" stop-opacity=".5"/><stop offset=".1652" stop-color="#fcab1a" stop-opacity=".417"/><stop offset=".5181" stop-color="#fdc25b" stop-opacity=".241"/><stop offset="1" stop-color="#fee5be" stop-opacity="0"/></linearGradient><linearGradient id="SVGID_7_" gradientUnits="userSpaceOnUse" x1="61.901" x2="486.035" y1="503.938" y2="79.804"><stop offset="0" stop-color="#fcb000"/><stop offset=".2136" stop-color="#fdc749"/><stop offset=".4253" stop-color="#fedb8a"/><stop offset=".6156" stop-color="#feeabc"/><stop offset=".7808" stop-color="#fff6e1"/><stop offset=".9145" stop-color="#fffcf7"/><stop offset="1" stop-color="#fff"/></linearGradient><linearGradient id="SVGID_8_" gradientUnits="userSpaceOnUse" x1="97.774" x2="306.137" y1="446.465" y2="238.102"><stop offset="0" stop-color="#fca200"/><stop offset=".0848" stop-color="#fca509"/><stop offset=".2246" stop-color="#fcae22"/><stop offset=".4018" stop-color="#fdbd4b"/><stop offset=".6097" stop-color="#fed283"/><stop offset=".8405" stop-color="#feecca"/><stop offset="1" stop-color="#fff"/></linearGradient><g><circle cx="256" cy="256" fill="url(#SVGID_1_)" r="256"/><circle cx="256" cy="256" fill="url(#SVGID_2_)" r="256"/><path d="m393.657 141.567c-45.885-1.27-91.771-1.905-137.656-1.905-11.318-12.156-22.546-24.274-33.642-36.317-5.627-6.106-13.47-9.5-21.731-9.367-26.876.428-53.751 1.167-80.627 2.219-16.537.673-30.695 14.763-31.423 31.303-1.486 35-2.365 70-2.636 105 113.373-.783 226.745-.783 340.118 0-.155-20-.509-40-1.061-60-.474-16.54-14.596-30.444-31.342-30.933z" fill="url(#SVGID_3_)"/><path d="m120 96.197c-16.536.673-30.694 14.763-31.422 31.303-1.486 35-2.365 70-2.636 105 113.373-.783 226.745-.783 340.118 0-.155-20-.509-40-1.061-60-.474-16.54-14.595-30.444-31.342-30.933-45.885-1.27-91.771-1.905-137.656-1.905-11.318-12.156-22.546-24.274-33.642-36.317-5.627-6.106-13.47-9.5-21.732-9.367-26.876.428-53.751 1.168-80.627 2.219z" fill="url(#SVGID_4_)"/><path d="m132.814 171.522c-.402 20.234-.66 40.469-.773 60.703 82.639-.417 165.278-.417 247.917 0-.113-20.234-.371-40.469-.773-60.703-82.123-1.479-164.247-1.479-246.371 0z" fill="url(#SVGID_5_)"/><path d="m393.657 141.567c-45.885-1.27-91.771-1.905-137.656-1.905-11.318-12.156-22.546-24.274-33.642-36.317-5.627-6.106-13.47-9.5-21.731-9.367-26.876.428-53.751 1.167-80.627 2.219-16.537.673-30.695 14.763-31.423 31.303-1.486 35-2.365 70-2.636 105 113.373-.783 226.745-.783 340.118 0-.155-20-.509-40-1.061-60-.474-16.54-14.596-30.444-31.342-30.933z" fill="url(#SVGID_6_)"/><path d="m85.941 232.5c-.419 54 .607 108 3.078 162 .517 11.033 9.95 20.422 20.981 20.897 97.333 4.087 194.667 4.087 292 0 11.032-.475 20.464-9.865 20.981-20.897 2.471-54 3.497-108 3.078-162-.134-16.54-14.124-30.195-31.046-30.44-92.675-1.197-185.35-1.197-278.025 0-16.923.245-30.913 13.901-31.047 30.44z" fill="url(#SVGID_7_)"/><path d="m133.275 288.221c-17.145-16.998-33.047-35.065-47.346-54.021-.385 53.433.645 106.866 3.09 160.3.517 11.038 9.946 20.421 20.981 20.897 80.397 3.376 160.793 3.963 241.19 1.762-80.415-21.37-156.453-68.224-217.915-128.938z" fill="url(#SVGID_8_)"/></g></svg>