<?xml version="1.0" encoding="utf-8"?>
<!-- Generator: Adobe Illustrator 22.1.0, SVG Export Plug-In . SVG Version: 6.00 Build 0)  -->
<svg version="1.1" id="Layer_1" xmlns="http://www.w3.org/2000/svg" xmlns:xlink="http://www.w3.org/1999/xlink" x="0px" y="0px"
	 viewBox="0 0 512 512" style="enable-background:new 0 0 512 512;" xml:space="preserve">
<style type="text/css">
	.st0{fill:#545454;}
	.st1{fill:#383838;}
	.st2{fill:#2E2E2E;}
	.st3{fill:#454545;}
</style>
<path class="st0" d="M266.8,133.6l-26.4,52.3l2.2-53.1c2.1-37.5-10.4-77.8-27.8-113.8l40.7-19C272.8,42.8,276.5,89.2,266.8,133.6z"
	/>
<path class="st1" d="M436.8,328c2.1,5.8,3.3,12.1,3.3,18.7c0,29.1-22.8,52.9-51.6,54.5c1.4,4.8,2.1,9.8,2.1,15
	c0,30.1-24.4,54.6-54.6,54.6c-6.2,0-12.1-1-17.6-2.9c-9.1,25.7-33.6,44.2-62.4,44.2c-28.8,0-53.3-18.5-62.4-44.2
	c-5.5,1.9-11.5,2.9-17.6,2.9c-30.1,0-54.6-24.4-54.6-54.6c0-5.2,0.7-10.2,2.1-15c-28.7-1.6-51.6-25.3-51.6-54.5
	c0-6.6,1.2-12.8,3.3-18.7c-10.9-11.8-17.6-27.6-17.6-44.9c0-23.9,12.6-44.8,31.6-56.4c-0.8-3.3-1.2-6.6-1.2-10.1
	c0-24,19-43.6,42.7-44.7c1-2,2.1-3.9,3.3-5.8c11.7-18.4,32.3-30.7,55.8-30.7c10.4,0,20.3,2.4,29,6.7c10.6-7.2,23.3-11.4,37.1-11.4
	c13.8,0,26.5,4.2,37.1,11.4c8.8-4.3,18.6-6.7,29-6.7c20.9,0,39.6,9.7,51.7,24.9c2.8,3.6,5.3,7.4,7.4,11.5
	c23.8,1,42.7,20.6,42.7,44.7c0,3.5-0.4,6.9-1.2,10.1c19,11.6,31.6,32.5,31.6,56.4C454.4,300.4,447.7,316.2,436.8,328z"/>
<path d="M322.1,135.4c-10.4,0-20.3,2.4-29,6.7c-10.6-7.2-23.3-11.4-37.1-11.4c-5.9,0-11.5,0.8-16.9,2.2c0,0,0,0,0,0
	c-0.1,0-0.3,0.1-0.4,0.1c-0.2,0-0.3,0.1-0.5,0.2c-2,0.6-4,1.2-5.9,1.9c-0.3,0.1-0.5,0.2-0.8,0.3c-0.5,0.2-1,0.4-1.5,0.6
	c-0.3,0.1-0.6,0.3-0.9,0.4c-0.5,0.2-1,0.4-1.4,0.7c-0.3,0.1-0.6,0.3-0.9,0.5c-0.5,0.2-0.9,0.4-1.3,0.7c-0.3,0.2-0.7,0.4-1,0.5
	c-0.4,0.2-0.8,0.5-1.2,0.7c-0.4,0.2-0.7,0.4-1.1,0.7c-0.4,0.2-0.7,0.4-1.1,0.6c-0.7,0.4-1.4,0.9-2.1,1.4c-8.8-4.3-18.6-6.7-29-6.7
	c0,0,0,0,0,0c0,0,0,0,0,0c-25.9,0-48.2,14.8-59.1,36.5c-23.8,1-42.7,20.6-42.7,44.7c0,3.5,0.4,6.9,1.2,10.1
	c-19,11.6-31.6,32.5-31.6,56.4c0,17.4,6.7,33.1,17.6,44.9c-2.1,5.8-3.3,12.1-3.3,18.7c0,29.1,22.8,52.9,51.6,54.5
	c-1.4,4.8-2.1,9.8-2.1,15c0,30.1,24.4,54.6,54.6,54.6c6.2,0,12.1-1,17.6-2.9c8.9,25.4,33,43.7,61.4,44.2
	c-21.9-0.6-39.5-18.5-39.5-40.5c0-5.7,1.2-11,3.3-15.9c-14.5-4.7-25-18.3-25-34.4c0-8.1,2.6-15.5,7.1-21.5
	c-23.9-5.8-41.6-27.3-41.6-53c0-6.6,1.2-12.8,3.3-18.7c-10.9-11.8-17.6-27.6-17.6-44.9c0-12.6,3.5-24.4,9.6-34.4
	c8.1-13.2,26.1-16.1,37.9-6.1l0,0c0,0,20-56.7,54.8-42c0,0,21.6-39.4,59.2-2.7c22.9,22.4,54.4-17.4,54.4-17.4l13-20.2
	C361.8,145.1,343.1,135.4,322.1,135.4z"/>
<path class="st2" d="M256,130.7c-25.1-30.1-65.8-45.4-106.7-36c-40.8,9.4-70.8,40.9-80.2,79c25.1,30.1,65.8,45.4,106.7,36
	C216.6,200.3,246.6,168.8,256,130.7z"/>
<path class="st3" d="M256,130.7c25.1-30.1,65.8-45.4,106.7-36c40.8,9.4,70.8,40.9,80.2,79c-25.1,30.1-65.8,45.4-106.7,36
	C295.4,200.3,265.4,168.8,256,130.7z"/>
<path class="st0" d="M387.6,166.9c-1.2,0-2.5-0.3-3.7-0.9c-70.3-38.3-125.8-27.8-126.4-27.7c-4.2,0.8-8.2-1.9-9.1-6s1.9-8.2,6-9.1
	c2.5-0.5,61.7-11.7,136.8,29.2c3.7,2,5.1,6.7,3.1,10.4C392.9,165.4,390.3,166.9,387.6,166.9z"/>
<path class="st0" d="M334.1,172.2c-3,0-5.9-1.8-7.1-4.8l-12-29.1c-1.4-3.5-0.1-7.5,3-9.4l24-15c3.6-2.2,8.4-1.2,10.6,2.4
	c2.3,3.6,1.2,8.4-2.4,10.6l-18.5,11.5l9.5,23.1c1.6,3.9-0.3,8.4-4.2,10C336.1,172,335.1,172.2,334.1,172.2z"/>
<path class="st0" d="M124.4,166.9c-2.7,0-5.4-1.5-6.8-4c-2-3.7-0.7-8.4,3.1-10.4c75.1-41,134.3-29.7,136.8-29.2
	c4.2,0.8,6.9,4.9,6,9.1c-0.8,4.2-4.9,6.9-9,6l0,0c-0.1,0-14.2-2.7-36.7-0.6c-20.7,1.9-53.1,8.4-89.7,28.3
	C126.9,166.6,125.7,166.9,124.4,166.9z"/>
<path class="st0" d="M177.9,172.2c-1,0-2-0.2-2.9-0.6c-3.9-1.6-5.8-6.1-4.2-10l9.5-23.1l-18.5-11.5c-3.6-2.3-4.7-7-2.4-10.6
	c2.3-3.6,7-4.7,10.6-2.4l24,15c3.2,2,4.5,6,3,9.4l-12,29.1C183.8,170.4,180.9,172.2,177.9,172.2z"/>
</svg>
