<svg id="Capa_1" enable-background="new 0 0 510.641 510.641" height="512" viewBox="0 0 510.641 510.641" width="512" xmlns="http://www.w3.org/2000/svg"><g><g><path d="m64.206 221.771h-30v-94.111l81.503-47.056 15 25.981-66.503 38.395z" fill="#ffe477"/></g><g><path d="m115.709 430.036-81.503-47.056v-94.11h30v76.79l66.503 38.396z" fill="#ffe477"/></g><g><path d="m394.932 430.036-15-25.98 66.502-38.396v-76.79h30v94.11z" fill="#ffb655"/></g><g><path d="m476.434 221.771h-30v-76.791l-66.502-38.395 15-25.981 81.502 47.056z" fill="#ffb655"/></g><g><path d="m94.673 162.57v185.5l160.647 92.75 20-115.346-20-110.154z" fill="#00969b"/><path d="m255.32 215.32v225.5l160.648-92.75v-185.5z" fill="#006468"/><path d="m255.32 69.82-160.647 92.75 160.647 92.75 20-92.75z" fill="#00b6bd"/><path d="m255.32 255.32 160.648-92.75-160.648-92.75z" fill="#00969b"/><g><path d="m255.32 0-81.502 47.056 15 25.98 66.502-38.395 10-16.654z" fill="#ffe477"/><path d="m336.823 47.056-81.503-47.056v34.641l66.503 38.395z" fill="#ffb655"/></g></g><g><path d="m255.32 476-66.502-38.396-15 25.981 81.502 47.056 10-23.821z" fill="#ffe477"/><path d="m321.823 437.604-66.503 38.396v34.641l81.503-47.056z" fill="#ffb655"/></g></g></svg>