<svg id="Capa_1" enable-background="new 0 0 512 512" height="512" viewBox="0 0 512 512" width="512" xmlns="http://www.w3.org/2000/svg"><g><path d="m464.623 256c0-7.638-.422-15.176-1.222-22.601l48.6-41.61c-3.11-12.315-7.129-24.558-12.126-36.64-5.01-12.077-10.825-23.576-17.334-34.483l-63.699 4.936c-9.521-11.874-20.311-22.682-32.169-32.222l4.944-63.803c-10.907-6.509-22.406-12.324-34.483-17.334-12.083-4.997-24.326-9.016-36.64-12.126l-41.544 48.522c-7.537-.825-15.191-1.262-22.949-1.262-7.638 0-15.176.422-22.601 1.222l-41.61-48.599c-12.315 3.11-24.558 7.129-36.64 12.126-12.077 5.01-23.576 10.825-34.483 17.334l4.936 63.699c-11.874 9.521-22.682 20.311-32.222 32.169l-63.803-4.944c-6.509 10.907-12.324 22.406-17.335 34.483-4.997 12.083-9.016 24.325-12.126 36.64l48.522 41.544c-.825 7.538-1.262 15.191-1.262 22.949 0 7.638.422 15.176 1.222 22.601l-48.599 41.609c3.11 12.315 7.129 24.558 12.126 36.64 5.01 12.077 10.825 23.576 17.334 34.483l63.699-4.936c9.521 11.874 20.311 22.682 32.169 32.222l-4.944 63.803c10.907 6.509 22.406 12.324 34.483 17.335 12.083 4.997 24.326 9.016 36.64 12.126l41.544-48.522c7.537.825 15.191 1.262 22.949 1.262 7.638 0 15.176-.422 22.601-1.222l41.61 48.6c12.315-3.11 24.558-7.129 36.64-12.126 12.077-5.01 23.576-10.825 34.483-17.334l-4.936-63.7c11.874-9.52 22.682-20.311 32.222-32.168l63.803 4.944c6.509-10.907 12.324-22.406 17.335-34.483 4.997-12.083 9.016-24.326 12.126-36.64l-48.522-41.544c.824-7.539 1.261-15.193 1.261-22.95zm-208.623 150c-82.71 0-150-67.29-150-150s67.29-150 150-150 150 67.29 150 150-67.29 150-150 150z"/><path d="m256 136c-66.168 0-120 53.832-120 120s53.832 120 120 120 120-53.832 120-120-53.832-120-120-120zm0 210c-49.626 0-90-40.374-90-90s40.374-90 90-90 90 40.374 90 90-40.374 90-90 90z"/><circle cx="256" cy="256" r="60"/></g></svg>