<?xml version="1.0" encoding="iso-8859-1"?>
<!-- Generator: Adobe Illustrator 19.0.0, SVG Export Plug-In . SVG Version: 6.00 Build 0)  -->
<svg version="1.1" id="Capa_1" xmlns="http://www.w3.org/2000/svg" xmlns:xlink="http://www.w3.org/1999/xlink" x="0px" y="0px"
	 viewBox="0 0 512 512" style="enable-background:new 0 0 512 512;" xml:space="preserve">
<g>
	<path style="fill:#FCCC88;" d="M494.345,282.483v-52.966c9.739-0.029,17.627-7.916,17.655-17.655v-52.966
		c-0.028-9.739-7.916-17.627-17.655-17.655V88.276c9.739-0.029,17.627-7.916,17.655-17.655V17.655
		C511.972,7.916,504.084,0.028,494.345,0h-79.448c-9.739,0.028-17.627,7.916-17.655,17.655h-52.966
		C344.247,7.916,336.36,0.028,326.621,0H17.655C7.916,0.028,0.028,7.916,0,17.655v52.966c0.029,9.739,7.916,17.627,17.655,17.655
		v52.966C7.916,141.27,0.028,149.158,0,158.897v52.966c0.029,9.739,7.916,17.627,17.655,17.655v52.966
		C7.916,282.511,0.028,290.399,0,300.138v52.966c0.029,9.739,7.916,17.626,17.655,17.655v52.966
		C7.916,423.753,0.028,431.64,0,441.379v52.966c0.029,9.739,7.916,17.627,17.655,17.655h79.448
		c9.739-0.029,17.627-7.916,17.655-17.655h52.966c0.029,9.739,7.916,17.627,17.655,17.655h308.966
		c9.739-0.029,17.627-7.916,17.655-17.655v-52.966c-0.028-9.739-7.916-17.627-17.655-17.655v-52.966
		c9.739-0.029,17.627-7.916,17.655-17.655v-52.966C511.972,290.399,504.084,282.511,494.345,282.483z"/>
	<path id="SVGCleanerId_0" style="fill:#CD4F38;" d="M17.655,0h308.966c9.751,0,17.655,7.904,17.655,17.655v52.966
		c0,9.751-7.904,17.655-17.655,17.655H17.655C7.904,88.276,0,80.371,0,70.621V17.655C0,7.904,7.904,0,17.655,0z"/>
	<path style="fill:#DC6C33;" d="M414.897,0h79.448C504.095,0,512,7.904,512,17.655v52.966c0,9.751-7.905,17.655-17.655,17.655
		h-79.448c-9.751,0-17.655-7.904-17.655-17.655V17.655C397.241,7.904,405.146,0,414.897,0z"/>
	<path id="SVGCleanerId_1" style="fill:#CD4F38;" d="M185.379,423.724h308.966c9.751,0,17.655,7.905,17.655,17.655v52.966
		c0,9.751-7.905,17.655-17.655,17.655H185.379c-9.751,0-17.655-7.905-17.655-17.655v-52.966
		C167.724,431.629,175.629,423.724,185.379,423.724z"/>
	<path id="SVGCleanerId_2" style="fill:#DC6C33;" d="M17.655,423.724h79.448c9.751,0,17.655,7.905,17.655,17.655v52.966
		c0,9.751-7.904,17.655-17.655,17.655H17.655C7.904,512,0,504.095,0,494.345v-52.966C0,431.629,7.904,423.724,17.655,423.724z"/>
	<path id="SVGCleanerId_3" style="fill:#DC6C33;" d="M17.655,282.483h308.966c9.751,0,17.655,7.905,17.655,17.655v52.966
		c0,9.751-7.904,17.655-17.655,17.655H17.655C7.904,370.759,0,362.854,0,353.103v-52.966C0,290.387,7.904,282.483,17.655,282.483z"
		/>
	<path id="SVGCleanerId_4" style="fill:#CD4F38;" d="M414.897,282.483h79.448c9.751,0,17.655,7.905,17.655,17.655v52.966
		c0,9.751-7.905,17.655-17.655,17.655h-79.448c-9.751,0-17.655-7.904-17.655-17.655v-52.966
		C397.241,290.387,405.146,282.483,414.897,282.483z"/>
	<path style="fill:#ED634C;" d="M185.379,141.241h308.966c9.751,0,17.655,7.904,17.655,17.655v52.966
		c0,9.751-7.905,17.655-17.655,17.655H185.379c-9.751,0-17.655-7.904-17.655-17.655v-52.966
		C167.724,149.146,175.629,141.241,185.379,141.241z"/>
	<path id="SVGCleanerId_5" style="fill:#EC9130;" d="M17.655,141.241h79.448c9.751,0,17.655,7.904,17.655,17.655v52.966
		c0,9.751-7.904,17.655-17.655,17.655H17.655C7.904,229.517,0,221.613,0,211.862v-52.966C0,149.146,7.904,141.241,17.655,141.241z"
		/>
	<g>
		<path id="SVGCleanerId_0_1_" style="fill:#CD4F38;" d="M17.655,0h308.966c9.751,0,17.655,7.904,17.655,17.655v52.966
			c0,9.751-7.904,17.655-17.655,17.655H17.655C7.904,88.276,0,80.371,0,70.621V17.655C0,7.904,7.904,0,17.655,0z"/>
	</g>
	<path style="fill:#EC9130;" d="M414.897,0h79.448C504.095,0,512,7.904,512,17.655v52.966c0,9.751-7.905,17.655-17.655,17.655
		h-79.448c-9.751,0-17.655-7.904-17.655-17.655V17.655C397.241,7.904,405.146,0,414.897,0z"/>
	<g>
		<path id="SVGCleanerId_1_1_" style="fill:#CD4F38;" d="M185.379,423.724h308.966c9.751,0,17.655,7.905,17.655,17.655v52.966
			c0,9.751-7.905,17.655-17.655,17.655H185.379c-9.751,0-17.655-7.905-17.655-17.655v-52.966
			C167.724,431.629,175.629,423.724,185.379,423.724z"/>
	</g>
	<g>
		<path id="SVGCleanerId_2_1_" style="fill:#DC6C33;" d="M17.655,423.724h79.448c9.751,0,17.655,7.905,17.655,17.655v52.966
			c0,9.751-7.904,17.655-17.655,17.655H17.655C7.904,512,0,504.095,0,494.345v-52.966C0,431.629,7.904,423.724,17.655,423.724z"/>
	</g>
	<g>
		<path id="SVGCleanerId_3_1_" style="fill:#DC6C33;" d="M17.655,282.483h308.966c9.751,0,17.655,7.905,17.655,17.655v52.966
			c0,9.751-7.904,17.655-17.655,17.655H17.655C7.904,370.759,0,362.854,0,353.103v-52.966C0,290.387,7.904,282.483,17.655,282.483z"
			/>
	</g>
	<g>
		<path id="SVGCleanerId_4_1_" style="fill:#CD4F38;" d="M414.897,282.483h79.448c9.751,0,17.655,7.905,17.655,17.655v52.966
			c0,9.751-7.905,17.655-17.655,17.655h-79.448c-9.751,0-17.655-7.904-17.655-17.655v-52.966
			C397.241,290.387,405.146,282.483,414.897,282.483z"/>
	</g>
	<path style="fill:#DC6C33;" d="M185.379,141.241h308.966c9.751,0,17.655,7.904,17.655,17.655v52.966
		c0,9.751-7.905,17.655-17.655,17.655H185.379c-9.751,0-17.655-7.904-17.655-17.655v-52.966
		C167.724,149.146,175.629,141.241,185.379,141.241z"/>
	<g>
		<path id="SVGCleanerId_5_1_" style="fill:#EC9130;" d="M17.655,141.241h79.448c9.751,0,17.655,7.904,17.655,17.655v52.966
			c0,9.751-7.904,17.655-17.655,17.655H17.655C7.904,229.517,0,221.613,0,211.862v-52.966C0,149.146,7.904,141.241,17.655,141.241z"
			/>
	</g>
</g>
<g>
</g>
<g>
</g>
<g>
</g>
<g>
</g>
<g>
</g>
<g>
</g>
<g>
</g>
<g>
</g>
<g>
</g>
<g>
</g>
<g>
</g>
<g>
</g>
<g>
</g>
<g>
</g>
<g>
</g>
</svg>
