<?xml version="1.0" encoding="iso-8859-1"?>
<!-- Generator: Adobe Illustrator 19.0.0, SVG Export Plug-In . SVG Version: 6.00 Build 0)  -->
<svg version="1.1" id="Capa_1" xmlns="http://www.w3.org/2000/svg" xmlns:xlink="http://www.w3.org/1999/xlink" x="0px" y="0px"
	 viewBox="0 0 512 512" style="enable-background:new 0 0 512 512;" xml:space="preserve">
<g>
	<polygon style="fill:#CC6F56;" points="476.69,123.586 476.69,388.414 256,512 35.31,388.414 35.31,123.586 81.037,97.986 
		126.764,72.386 172.491,46.786 214.687,23.128 256,0 341.716,48.022 433.17,99.222 	"/>
	<polygon style="fill:#F09372;" points="341.716,48.022 300.403,71.15 258.207,47.492 214.687,23.128 256,0 	"/>
	<polygon style="fill:#F0785A;" points="258.207,47.492 216.011,71.15 172.491,46.786 214.687,23.128 	"/>
	<polygon style="fill:#CC6F56;" points="433.17,99.222 391.857,122.35 346.13,96.75 300.403,71.15 341.716,48.022 	"/>
	<polygon style="fill:#F09372;" points="435.377,146.714 393.181,170.372 349.661,146.008 303.934,120.408 346.13,96.75 
		391.857,122.35 	"/>
	<g>
		<polygon style="fill:#F0785A;" points="393.181,170.372 345.777,196.855 344.276,194.207 303.934,171.608 349.661,146.008 		"/>
		<polygon style="fill:#F0785A;" points="349.661,146.008 303.934,171.608 258.207,146.008 212.48,120.408 258.207,94.808 
			303.934,120.408 		"/>
	</g>
	<polygon style="fill:#F09372;" points="258.207,94.808 212.48,120.408 170.284,96.75 126.764,72.386 172.491,46.786 216.011,71.15 
			"/>
	<polygon style="fill:#F0785A;" points="170.284,96.75 124.557,122.35 81.037,97.986 126.764,72.386 	"/>
	<g>
		<polygon style="fill:#F09372;" points="345.777,196.855 301.727,221.572 258.207,197.208 212.48,171.608 258.207,146.008 
			303.934,171.608 344.276,194.207 		"/>
		<polygon style="fill:#F09372;" points="301.727,221.572 256,247.172 220.513,227.31 215.658,224.574 213.628,223.426 
			214.687,221.572 258.207,197.208 		"/>
	</g>
	<polygon style="fill:#F0785A;" points="258.207,197.208 214.687,221.572 213.628,223.426 182.29,205.859 176.552,202.681 
		136.563,180.259 132.326,177.876 122.174,172.226 123.233,170.372 166.753,146.008 212.48,171.608 	"/>
	<polygon style="fill:#F09372;" points="166.753,146.008 123.233,170.372 122.174,172.226 45.462,129.236 35.31,123.586 
		81.037,97.986 124.557,122.35 	"/>
	<polygon style="fill:#F0785A;" points="476.69,123.586 435.377,146.714 391.857,122.35 433.17,99.222 	"/>
	<polygon style="fill:#804537;" points="476.69,123.586 476.69,211.862 256,335.448 256,247.172 	"/>
	<polygon style="fill:#CC6F56;" points="476.69,211.862 476.69,300.138 256,423.724 256,335.448 	"/>
	<g>
		<polygon style="fill:#804537;" points="476.69,300.138 476.69,388.414 256,512 256,423.724 		"/>
		<polygon style="fill:#804537;" points="256,335.448 256,423.724 35.31,300.138 35.31,211.862 		"/>
	</g>
	<g>
		<polygon style="fill:#CC6F56;" points="258.207,146.008 212.48,171.608 166.753,146.008 124.557,122.35 170.284,96.75 
			212.48,120.408 		"/>
		<polygon style="fill:#CC6F56;" points="346.13,96.75 303.934,120.408 258.207,94.808 216.011,71.15 258.207,47.492 300.403,71.15 
					"/>
	</g>
</g>
<g>
</g>
<g>
</g>
<g>
</g>
<g>
</g>
<g>
</g>
<g>
</g>
<g>
</g>
<g>
</g>
<g>
</g>
<g>
</g>
<g>
</g>
<g>
</g>
<g>
</g>
<g>
</g>
<g>
</g>
</svg>
